<svg width="343.811" height="415.5" xmlns="http://www.w3.org/2000/svg" data-name="Layer 1">

 <g>
  <title>Layer 1</title>
  <path id="svg_1" fill="#ccc" d="m762.811,555.5l-381,0a1,1 0 1 1 0,-2l381,0a1,1 0 0 1 0,2z"/>
  <path id="svg_19" fill="#e6e6e6" d="m315.94807,157.58184l-72.3523,112.6234a3.369,3.369 0 0 1 -4.65516,1.01509l-0.00188,-0.00121l-191.1853,-122.82262a2.842,2.842 0 0 1 -0.38606,-0.29266a3.367,3.367 0 0 1 -0.62782,-4.36438l72.35234,-112.6234a3.369,3.369 0 0 1 4.6551,-1.01509l0.00192,0.00123l191.18526,122.82262a3.369,3.369 0 0 1 1.01511,4.65515l-0.00121,0.00187z"/>
  <circle id="svg_20" fill="#6c63ff" r="29.56668" cy="101.32892" cx="142.06768"/>
  <path id="svg_21" fill="#3f3d56" d="m170.82808,228.10086l-122.03281,-78.39719a2.95738,2.95738 0 0 1 -0.43282,-0.3291l121.94078,-62.894a4.80316,4.80316 0 0 1 7.03446,4.51913l-4.36527,91.97329l-0.20663,4.40238l-1.93771,40.72549z"/>
  <polygon id="svg_22" opacity="0.2" points="170.82827711105347,228.10066604614258 129.1632685661316,201.33366775512695 168.70227003097534,184.76466751098633 171.54927015304565,183.5706672668457 172.97227430343628,182.97267532348633 172.76626539230347,187.37567520141602 170.82827711105347,228.10066604614258 "/>
  <path id="svg_23" fill="#3f3d56" d="m238.77505,271.75184l-105.54835,-67.80717l39.53907,-16.5693l2.84678,-1.19457l51.52493,-21.59436c3.37744,-1.41493 7.68248,1.12751 8.31264,4.66416a5.72642,5.72642 0 0 1 0.07635,0.72515l3.24858,101.77609z"/>
  <path id="svg_24" fill="#3f3d56" d="m341.17221,152.64696a12.13173,12.13173 0 0 0 -5.25524,-12.89675l-210.18,-135.02535a12.09951,12.09951 0 0 0 -16.7261,3.64144l-103.61671,161.28937a12.12136,12.12136 0 0 0 3.64144,16.7261l210.18,135.02535a12.12135,12.12135 0 0 0 16.7261,-3.64144l103.61671,-161.28937a12.01219,12.01219 0 0 0 1.6138,-3.82935zm-106.4286,164.34908a10.69318,10.69318 0 0 1 -14.75832,3.213l-210.18,-135.02535a10.69318,10.69318 0 0 1 -3.213,-14.75833l103.61667,-161.28938a10.69318,10.69318 0 0 1 14.75833,-3.213l210.18,135.02535a10.69319,10.69319 0 0 1 3.213,14.75833l-103.61668,161.28938z"/>
  <path id="svg_25" fill="#fff" d="m334.25518,203.8095a12.13174,12.13174 0 0 0 -11.39218,-8.01012l-249.81488,0a12.0995,12.0995 0 0 0 -12.10419,12.10418l0,191.70471a12.12136,12.12136 0 0 0 12.10419,12.10419l249.81488,0a12.12136,12.12136 0 0 0 12.10419,-12.10419l0,-191.70471a12.01214,12.01214 0 0 0 -0.71201,-4.09406z"/>
  <path id="svg_26" fill="#3f3d56" d="m334.25518,203.8095a12.13174,12.13174 0 0 0 -11.39218,-8.01012l-249.81488,0a12.0995,12.0995 0 0 0 -12.10419,12.10418l0,191.70471a12.12136,12.12136 0 0 0 12.10419,12.10419l249.81488,0a12.12136,12.12136 0 0 0 12.10419,-12.10419l0,-191.70471a12.01214,12.01214 0 0 0 -0.71201,-4.09406zm-0.712,195.79877a10.69318,10.69318 0 0 1 -10.68017,10.68016l-249.81489,0a10.69318,10.69318 0 0 1 -10.68016,-10.68016l0,-191.70471a10.69318,10.69318 0 0 1 10.68016,-10.68016l249.81488,0a10.69318,10.69318 0 0 1 10.68017,10.68016l0.00001,191.70471z"/>
  <path id="svg_27" fill="#e6e6e6" d="m315.70034,221.59511l0,133.86146a3.369,3.369 0 0 1 -3.36792,3.37016l-227.24045,0a2.84014,2.84014 0 0 1 -0.483,-0.03756a3.367,3.367 0 0 1 -2.88717,-3.3326l0,-133.86146a3.369,3.369 0 0 1 3.36788,-3.37013l227.2405,0a3.369,3.369 0 0 1 3.37016,3.36791l0,0.00222z"/>
  <circle id="svg_28" fill="#6c63ff" r="29.56668" cy="268.24975" cx="139.0025"/>
  <path id="svg_29" fill="#3f3d56" d="m231.7203,359.36338l-145.04526,0a2.957,2.957 0 0 1 -0.542,-0.04294l68.59973,-118.82459a4.80317,4.80317 0 0 1 8.361,0l46.039,79.74052l2.20564,3.81559l20.38189,35.31142z"/>
  <polygon id="svg_30" opacity="0.2" points="231.7202754020691,359.3636817932129 182.19827222824097,359.3636817932129 206.50826978683472,324.0516700744629 208.25826978683472,321.50867080688477 209.13326978683472,320.23666763305664 211.3382716178894,324.0516700744629 231.7202754020691,359.3636817932129 "/>
  <path id="svg_31" fill="#3f3d56" d="m312.48043,359.36338l-125.45223,0l24.31019,-35.31143l1.74945,-2.54374l31.67835,-46.01754c2.07682,-3.016 7.073,-3.20378 9.51476,-0.56884a5.724,5.724 0 0 1 0.45619,0.56884l57.74329,83.87271z"/>
  <path id="svg_32" fill="#3f3d56" d="m334.25518,203.8095a12.13174,12.13174 0 0 0 -11.39218,-8.01012l-249.81488,0a12.0995,12.0995 0 0 0 -12.10419,12.10418l0,191.70471a12.12136,12.12136 0 0 0 12.10419,12.10419l249.81488,0a12.12136,12.12136 0 0 0 12.10419,-12.10419l0,-191.70471a12.01214,12.01214 0 0 0 -0.71201,-4.09406zm-0.712,195.79877a10.69318,10.69318 0 0 1 -10.68017,10.68016l-249.81489,0a10.69318,10.69318 0 0 1 -10.68016,-10.68016l0,-191.70471a10.69318,10.69318 0 0 1 10.68016,-10.68016l249.81488,0a10.69318,10.69318 0 0 1 10.68017,10.68016l0.00001,191.70471z"/>
 </g>
</svg>