<svg width="343.811" height="325.5" xmlns="http://www.w3.org/2000/svg" data-name="Layer 1">

 <g>
  <title>Layer 1</title>
  <path id="svg_1" fill="#ccc" d="m762.811,555.5l-381,0a1,1 0 1 1 0,-2l381,0a1,1 0 0 1 0,2z"/>
  <path id="svg_19" fill="#e6e6e6" d="m315.94807,157.58184l-72.3523,112.6234a3.369,3.369 0 0 1 -4.65516,1.01509l-0.00188,-0.00121l-191.1853,-122.82262a2.842,2.842 0 0 1 -0.38606,-0.29266a3.367,3.367 0 0 1 -0.62782,-4.36438l72.35234,-112.6234a3.369,3.369 0 0 1 4.6551,-1.01509l0.00192,0.00123l191.18526,122.82262a3.369,3.369 0 0 1 1.01511,4.65515l-0.00121,0.00187z"/>
  <circle id="svg_20" fill="#6c63ff" r="29.56668" cy="101.32892" cx="142.06768"/>
  <path id="svg_21" fill="#3f3d56" d="m170.82808,228.10086l-122.03281,-78.39719a2.95738,2.95738 0 0 1 -0.43282,-0.3291l121.94078,-62.894a4.80316,4.80316 0 0 1 7.03446,4.51913l-4.36527,91.97329l-0.20663,4.40238l-1.93771,40.72549z"/>
  <polygon id="svg_22" opacity="0.2" points="170.82827711105347,228.10066604614258 129.1632685661316,201.33366775512695 168.70227003097534,184.76466751098633 171.54927015304565,183.5706672668457 172.97227430343628,182.97267532348633 172.76626539230347,187.37567520141602 170.82827711105347,228.10066604614258 "/>
  <path id="svg_23" fill="#3f3d56" d="m238.77505,271.75184l-105.54835,-67.80717l39.53907,-16.5693l2.84678,-1.19457l51.52493,-21.59436c3.37744,-1.41493 7.68248,1.12751 8.31264,4.66416a5.72642,5.72642 0 0 1 0.07635,0.72515l3.24858,101.77609z"/>
  <path id="svg_24" fill="#3f3d56" d="m341.17221,152.64696a12.13173,12.13173 0 0 0 -5.25524,-12.89675l-210.18,-135.02535a12.09951,12.09951 0 0 0 -16.7261,3.64144l-103.61671,161.28937a12.12136,12.12136 0 0 0 3.64144,16.7261l210.18,135.02535a12.12135,12.12135 0 0 0 16.7261,-3.64144l103.61671,-161.28937a12.01219,12.01219 0 0 0 1.6138,-3.82935zm-106.4286,164.34908a10.69318,10.69318 0 0 1 -14.75832,3.213l-210.18,-135.02535a10.69318,10.69318 0 0 1 -3.213,-14.75833l103.61667,-161.28938a10.69318,10.69318 0 0 1 14.75833,-3.213l210.18,135.02535a10.69319,10.69319 0 0 1 3.213,14.75833l-103.61668,161.28938z"/>
 </g>
</svg>